<mxfile host="app.diagrams.net" modified="2023-12-06T17:01:19.552Z" agent="Mozilla/5.0 (Windows NT 10.0; Win64; x64) AppleWebKit/537.36 (KHTML, like Gecko) Chrome/119.0.0.0 Safari/537.36" etag="j1HjTQx5BDQxxl8SZSdY" version="22.1.6" type="github">
  <diagram name="Page-1" id="reDfM8CrHqHsR3QStg8j">
    <mxGraphModel dx="1914" dy="2216" grid="1" gridSize="10" guides="1" tooltips="1" connect="1" arrows="1" fold="1" page="1" pageScale="1" pageWidth="850" pageHeight="1100" math="0" shadow="0">
      <root>
        <mxCell id="0" />
        <mxCell id="1" parent="0" />
        <mxCell id="rjEZ4kOpZJ9vNakwqDbt-1" value="&amp;nbsp; &amp;nbsp;Host Project - Non-production" style="rounded=0;whiteSpace=wrap;html=1;align=left;verticalAlign=top;" vertex="1" parent="1">
          <mxGeometry x="40" y="40" width="680" height="440" as="geometry" />
        </mxCell>
        <mxCell id="rjEZ4kOpZJ9vNakwqDbt-2" value="&amp;nbsp; &amp;nbsp;VPC - Non-production Shared" style="rounded=0;whiteSpace=wrap;html=1;align=left;verticalAlign=top;" vertex="1" parent="1">
          <mxGeometry x="70" y="70" width="610" height="400" as="geometry" />
        </mxCell>
        <mxCell id="rjEZ4kOpZJ9vNakwqDbt-3" value="us-central1" style="rounded=0;whiteSpace=wrap;html=1;verticalAlign=top;" vertex="1" parent="1">
          <mxGeometry x="110" y="110" width="540" height="190" as="geometry" />
        </mxCell>
        <mxCell id="rjEZ4kOpZJ9vNakwqDbt-6" value="Cloud Router" style="rounded=0;whiteSpace=wrap;html=1;" vertex="1" parent="1">
          <mxGeometry x="140" y="140" width="210" height="50" as="geometry" />
        </mxCell>
        <mxCell id="rjEZ4kOpZJ9vNakwqDbt-31" value="&lt;div style=&quot;text-align: left;&quot;&gt;&lt;span style=&quot;background-color: initial;&quot;&gt;Service Project:&amp;nbsp; ub-databricks-nonprod&lt;/span&gt;&lt;span style=&quot;background-color: initial; white-space: pre;&quot;&gt;&#x9;&lt;/span&gt;&lt;span style=&quot;background-color: initial; white-space: pre;&quot;&gt;&#x9;&lt;/span&gt;&lt;span style=&quot;background-color: initial; white-space: pre;&quot;&gt;&#x9;&lt;/span&gt;&lt;span style=&quot;background-color: initial; white-space: pre;&quot;&gt;&#x9;&lt;/span&gt;&lt;span style=&quot;background-color: initial; white-space: pre;&quot;&gt;&#x9;&lt;/span&gt;&lt;span style=&quot;background-color: initial; white-space: pre;&quot;&gt;&#x9;&lt;/span&gt;&lt;span style=&quot;background-color: initial; white-space: pre;&quot;&gt;&#x9;&lt;/span&gt;&lt;span style=&quot;background-color: initial; white-space: pre;&quot;&gt;&#x9;&lt;/span&gt;&lt;span style=&quot;background-color: initial; white-space: pre;&quot;&gt;&#x9;&lt;/span&gt;&lt;span style=&quot;background-color: initial;&quot;&gt;us-central1&lt;/span&gt;&lt;/div&gt;" style="rounded=0;whiteSpace=wrap;html=1;verticalAlign=top;" vertex="1" parent="1">
          <mxGeometry x="109" y="320" width="530" height="120" as="geometry" />
        </mxCell>
        <mxCell id="rjEZ4kOpZJ9vNakwqDbt-32" value="Cloud DNS" style="rounded=0;whiteSpace=wrap;html=1;" vertex="1" parent="1">
          <mxGeometry x="410" y="140" width="210" height="50" as="geometry" />
        </mxCell>
        <mxCell id="rjEZ4kOpZJ9vNakwqDbt-33" value="&amp;nbsp;GKE&amp;nbsp; Dataplane V2" style="rounded=0;whiteSpace=wrap;html=1;" vertex="1" parent="1">
          <mxGeometry x="255" y="360" width="250" height="50" as="geometry" />
        </mxCell>
        <mxCell id="rjEZ4kOpZJ9vNakwqDbt-38" style="edgeStyle=orthogonalEdgeStyle;rounded=0;orthogonalLoop=1;jettySize=auto;html=1;exitX=1;exitY=0.5;exitDx=0;exitDy=0;entryX=0.561;entryY=0.003;entryDx=0;entryDy=0;entryPerimeter=0;endArrow=none;endFill=0;dashed=1;" edge="1" parent="1" source="rjEZ4kOpZJ9vNakwqDbt-37" target="rjEZ4kOpZJ9vNakwqDbt-31">
          <mxGeometry relative="1" as="geometry" />
        </mxCell>
        <mxCell id="rjEZ4kOpZJ9vNakwqDbt-39" value="assigned" style="edgeLabel;html=1;align=center;verticalAlign=middle;resizable=0;points=[];" vertex="1" connectable="0" parent="rjEZ4kOpZJ9vNakwqDbt-38">
          <mxGeometry x="0.1112" y="-2" relative="1" as="geometry">
            <mxPoint y="8" as="offset" />
          </mxGeometry>
        </mxCell>
        <mxCell id="rjEZ4kOpZJ9vNakwqDbt-42" style="edgeStyle=orthogonalEdgeStyle;rounded=0;orthogonalLoop=1;jettySize=auto;html=1;exitX=0;exitY=0.5;exitDx=0;exitDy=0;entryX=0;entryY=0.5;entryDx=0;entryDy=0;dashed=1;endArrow=none;endFill=0;" edge="1" parent="1" source="rjEZ4kOpZJ9vNakwqDbt-37" target="rjEZ4kOpZJ9vNakwqDbt-40">
          <mxGeometry relative="1" as="geometry">
            <Array as="points">
              <mxPoint x="80" y="245" />
              <mxPoint x="80" y="598" />
            </Array>
          </mxGeometry>
        </mxCell>
        <mxCell id="rjEZ4kOpZJ9vNakwqDbt-43" value="Shared with" style="edgeLabel;html=1;align=center;verticalAlign=middle;resizable=0;points=[];" vertex="1" connectable="0" parent="rjEZ4kOpZJ9vNakwqDbt-42">
          <mxGeometry x="0.457" y="-1" relative="1" as="geometry">
            <mxPoint as="offset" />
          </mxGeometry>
        </mxCell>
        <mxCell id="rjEZ4kOpZJ9vNakwqDbt-37" value="Databricks Subnet" style="rounded=0;whiteSpace=wrap;html=1;" vertex="1" parent="1">
          <mxGeometry x="140" y="220" width="210" height="50" as="geometry" />
        </mxCell>
        <mxCell id="rjEZ4kOpZJ9vNakwqDbt-40" value="&lt;div style=&quot;text-align: left;&quot;&gt;Google Managed Project&amp;nbsp;&lt;span style=&quot;white-space: pre;&quot;&gt;&#x9;&lt;/span&gt;&lt;span style=&quot;white-space: pre;&quot;&gt;&#x9;&lt;/span&gt;&lt;span style=&quot;white-space: pre;&quot;&gt;&#x9;&lt;/span&gt;&lt;span style=&quot;white-space: pre;&quot;&gt;&#x9;&lt;/span&gt;&lt;span style=&quot;background-color: initial; white-space: pre;&quot;&gt;&#x9;&lt;/span&gt;&lt;span style=&quot;background-color: initial; white-space: pre;&quot;&gt;&#x9;&lt;/span&gt;&lt;span style=&quot;background-color: initial; white-space: pre;&quot;&gt;&#x9;&lt;/span&gt;&lt;span style=&quot;background-color: initial; white-space: pre;&quot;&gt;&#x9;&lt;/span&gt;&lt;span style=&quot;background-color: initial; white-space: pre;&quot;&gt;&#x9;&lt;/span&gt;&lt;span style=&quot;background-color: initial; white-space: pre;&quot;&gt;&#x9;&lt;/span&gt;&lt;span style=&quot;background-color: initial; white-space: pre;&quot;&gt;&#x9;&lt;/span&gt;&lt;span style=&quot;background-color: initial; white-space: pre;&quot;&gt;&#x9;&lt;/span&gt;&lt;span style=&quot;background-color: initial;&quot;&gt;us-central1&lt;/span&gt;&lt;/div&gt;" style="rounded=0;whiteSpace=wrap;html=1;verticalAlign=top;" vertex="1" parent="1">
          <mxGeometry x="109" y="538" width="530" height="120" as="geometry" />
        </mxCell>
        <mxCell id="rjEZ4kOpZJ9vNakwqDbt-41" value="GKE Control Plane" style="rounded=0;whiteSpace=wrap;html=1;" vertex="1" parent="1">
          <mxGeometry x="249" y="578" width="250" height="50" as="geometry" />
        </mxCell>
        <mxCell id="rjEZ4kOpZJ9vNakwqDbt-44" style="edgeStyle=orthogonalEdgeStyle;rounded=0;orthogonalLoop=1;jettySize=auto;html=1;exitX=0.5;exitY=0;exitDx=0;exitDy=0;entryX=0.474;entryY=0.995;entryDx=0;entryDy=0;entryPerimeter=0;" edge="1" parent="1" source="rjEZ4kOpZJ9vNakwqDbt-41" target="rjEZ4kOpZJ9vNakwqDbt-33">
          <mxGeometry relative="1" as="geometry" />
        </mxCell>
        <mxCell id="rjEZ4kOpZJ9vNakwqDbt-45" value="dataplane and &lt;br&gt;gcp service calls" style="edgeLabel;html=1;align=center;verticalAlign=middle;resizable=0;points=[];" vertex="1" connectable="0" parent="rjEZ4kOpZJ9vNakwqDbt-44">
          <mxGeometry x="-0.123" y="2" relative="1" as="geometry">
            <mxPoint as="offset" />
          </mxGeometry>
        </mxCell>
        <mxCell id="rjEZ4kOpZJ9vNakwqDbt-46" value="&amp;nbsp; &amp;nbsp;Host Project - Non-production" style="rounded=0;whiteSpace=wrap;html=1;align=left;verticalAlign=top;" vertex="1" parent="1">
          <mxGeometry x="880" y="40" width="1170" height="440" as="geometry" />
        </mxCell>
        <mxCell id="rjEZ4kOpZJ9vNakwqDbt-47" value="&amp;nbsp; &amp;nbsp;VPC - Non-production Shared" style="rounded=0;whiteSpace=wrap;html=1;align=left;verticalAlign=top;" vertex="1" parent="1">
          <mxGeometry x="910" y="70" width="1100" height="400" as="geometry" />
        </mxCell>
        <mxCell id="rjEZ4kOpZJ9vNakwqDbt-48" value="us-central1" style="rounded=0;whiteSpace=wrap;html=1;verticalAlign=top;" vertex="1" parent="1">
          <mxGeometry x="950" y="110" width="540" height="190" as="geometry" />
        </mxCell>
        <mxCell id="rjEZ4kOpZJ9vNakwqDbt-49" value="Cloud Router" style="rounded=0;whiteSpace=wrap;html=1;" vertex="1" parent="1">
          <mxGeometry x="980" y="140" width="210" height="50" as="geometry" />
        </mxCell>
        <mxCell id="rjEZ4kOpZJ9vNakwqDbt-50" value="&lt;div style=&quot;text-align: left;&quot;&gt;&lt;span style=&quot;background-color: initial;&quot;&gt;Service Project:&amp;nbsp; ub-databricks-prod&lt;/span&gt;&lt;span style=&quot;background-color: initial; white-space: pre;&quot;&gt;&#x9;&lt;/span&gt;&lt;span style=&quot;background-color: initial; white-space: pre;&quot;&gt;&#x9;&lt;/span&gt;&lt;span style=&quot;background-color: initial; white-space: pre;&quot;&gt;&#x9;&lt;span style=&quot;white-space: pre;&quot;&gt;&#x9;&lt;/span&gt;&lt;span style=&quot;white-space: pre;&quot;&gt;&#x9;&lt;/span&gt;&lt;span style=&quot;white-space: pre;&quot;&gt;&#x9;&lt;/span&gt;&lt;span style=&quot;white-space: pre;&quot;&gt;&#x9;&lt;/span&gt;&lt;span style=&quot;white-space: pre;&quot;&gt;&#x9;&lt;/span&gt;&lt;span style=&quot;white-space: pre;&quot;&gt;&#x9;&lt;/span&gt;&lt;span style=&quot;white-space: pre;&quot;&gt;&#x9;&lt;/span&gt;&lt;span style=&quot;white-space: pre;&quot;&gt;&#x9;&lt;/span&gt;&lt;span style=&quot;white-space: pre;&quot;&gt;&#x9;&lt;/span&gt;&lt;span style=&quot;white-space: pre;&quot;&gt;&#x9;&lt;/span&gt;&lt;span style=&quot;white-space: pre;&quot;&gt;&#x9;&lt;/span&gt;&lt;span style=&quot;white-space: pre;&quot;&gt;&#x9;&lt;/span&gt;&lt;span style=&quot;white-space: pre;&quot;&gt;&#x9;&lt;/span&gt;&lt;span style=&quot;white-space: pre;&quot;&gt;&#x9;&lt;/span&gt;&lt;span style=&quot;white-space: pre;&quot;&gt;&#x9;&lt;/span&gt;&lt;span style=&quot;white-space: pre;&quot;&gt;&#x9;&lt;/span&gt;&lt;span style=&quot;white-space: pre;&quot;&gt;&#x9;&lt;/span&gt;&lt;span style=&quot;white-space: pre;&quot;&gt;&#x9;&lt;/span&gt;&lt;/span&gt;&lt;span style=&quot;background-color: initial; white-space: pre;&quot;&gt;&#x9;&lt;/span&gt;&lt;span style=&quot;background-color: initial; white-space: pre;&quot;&gt;&#x9;&lt;/span&gt;&lt;span style=&quot;background-color: initial; white-space: pre;&quot;&gt;&#x9;&lt;/span&gt;&lt;span style=&quot;background-color: initial; white-space: pre;&quot;&gt;&#x9;&lt;/span&gt;&lt;span style=&quot;background-color: initial; white-space: pre;&quot;&gt;&#x9;&lt;/span&gt;&lt;span style=&quot;background-color: initial; white-space: pre;&quot;&gt;&#x9;&lt;/span&gt;&lt;span style=&quot;background-color: initial;&quot;&gt;us-central1&lt;/span&gt;&lt;/div&gt;" style="rounded=0;whiteSpace=wrap;html=1;verticalAlign=top;" vertex="1" parent="1">
          <mxGeometry x="949" y="320" width="1021" height="120" as="geometry" />
        </mxCell>
        <mxCell id="rjEZ4kOpZJ9vNakwqDbt-51" value="Cloud DNS" style="rounded=0;whiteSpace=wrap;html=1;" vertex="1" parent="1">
          <mxGeometry x="1250" y="140" width="210" height="50" as="geometry" />
        </mxCell>
        <mxCell id="rjEZ4kOpZJ9vNakwqDbt-52" value="&amp;nbsp;GKE&amp;nbsp; Dataplane V2" style="rounded=0;whiteSpace=wrap;html=1;" vertex="1" parent="1">
          <mxGeometry x="1095" y="360" width="250" height="50" as="geometry" />
        </mxCell>
        <mxCell id="rjEZ4kOpZJ9vNakwqDbt-53" style="edgeStyle=orthogonalEdgeStyle;rounded=0;orthogonalLoop=1;jettySize=auto;html=1;exitX=1;exitY=0.5;exitDx=0;exitDy=0;endArrow=none;endFill=0;dashed=1;" edge="1" parent="1" source="rjEZ4kOpZJ9vNakwqDbt-57" target="rjEZ4kOpZJ9vNakwqDbt-50">
          <mxGeometry relative="1" as="geometry" />
        </mxCell>
        <mxCell id="rjEZ4kOpZJ9vNakwqDbt-54" value="assigned" style="edgeLabel;html=1;align=center;verticalAlign=middle;resizable=0;points=[];" vertex="1" connectable="0" parent="rjEZ4kOpZJ9vNakwqDbt-53">
          <mxGeometry x="0.1112" y="-2" relative="1" as="geometry">
            <mxPoint y="-2" as="offset" />
          </mxGeometry>
        </mxCell>
        <mxCell id="rjEZ4kOpZJ9vNakwqDbt-55" style="edgeStyle=orthogonalEdgeStyle;rounded=0;orthogonalLoop=1;jettySize=auto;html=1;exitX=0;exitY=0.5;exitDx=0;exitDy=0;entryX=0;entryY=0.5;entryDx=0;entryDy=0;dashed=1;endArrow=none;endFill=0;" edge="1" parent="1" source="rjEZ4kOpZJ9vNakwqDbt-57" target="rjEZ4kOpZJ9vNakwqDbt-58">
          <mxGeometry relative="1" as="geometry">
            <Array as="points">
              <mxPoint x="920" y="245" />
              <mxPoint x="920" y="598" />
            </Array>
          </mxGeometry>
        </mxCell>
        <mxCell id="rjEZ4kOpZJ9vNakwqDbt-56" value="Shared with" style="edgeLabel;html=1;align=center;verticalAlign=middle;resizable=0;points=[];" vertex="1" connectable="0" parent="rjEZ4kOpZJ9vNakwqDbt-55">
          <mxGeometry x="0.457" y="-1" relative="1" as="geometry">
            <mxPoint as="offset" />
          </mxGeometry>
        </mxCell>
        <mxCell id="rjEZ4kOpZJ9vNakwqDbt-57" value="Databricks Subnet" style="rounded=0;whiteSpace=wrap;html=1;" vertex="1" parent="1">
          <mxGeometry x="980" y="220" width="210" height="50" as="geometry" />
        </mxCell>
        <mxCell id="rjEZ4kOpZJ9vNakwqDbt-58" value="&lt;div style=&quot;text-align: left;&quot;&gt;Google Managed Project&amp;nbsp; &amp;nbsp; &amp;nbsp;&lt;span style=&quot;white-space: pre;&quot;&gt;&#x9;&lt;/span&gt;&lt;span style=&quot;white-space: pre;&quot;&gt;&#x9;&lt;/span&gt;&lt;span style=&quot;background-color: initial; white-space: pre;&quot;&gt;&#x9;&lt;/span&gt;&lt;span style=&quot;background-color: initial; white-space: pre;&quot;&gt;&#x9;&lt;/span&gt;&lt;span style=&quot;background-color: initial; white-space: pre;&quot;&gt;&#x9;&lt;/span&gt;&lt;span style=&quot;background-color: initial; white-space: pre;&quot;&gt;&#x9;&lt;/span&gt;&lt;span style=&quot;background-color: initial; white-space: pre;&quot;&gt;&#x9;&lt;/span&gt;&lt;span style=&quot;background-color: initial; white-space: pre;&quot;&gt;&#x9;&lt;/span&gt;&lt;span style=&quot;background-color: initial; white-space: pre;&quot;&gt;&#x9;&lt;span style=&quot;white-space: pre;&quot;&gt;&#x9;&lt;/span&gt;&lt;span style=&quot;white-space: pre;&quot;&gt;&#x9;&lt;/span&gt;&lt;span style=&quot;white-space: pre;&quot;&gt;&#x9;&lt;/span&gt;&lt;span style=&quot;white-space: pre;&quot;&gt;&#x9;&lt;/span&gt;&lt;span style=&quot;white-space: pre;&quot;&gt;&#x9;&lt;/span&gt;&lt;span style=&quot;white-space: pre;&quot;&gt;&#x9;&lt;/span&gt;&lt;span style=&quot;white-space: pre;&quot;&gt;&#x9;&lt;/span&gt;&lt;span style=&quot;white-space: pre;&quot;&gt;&#x9;&lt;/span&gt;&lt;span style=&quot;white-space: pre;&quot;&gt;&#x9;&lt;/span&gt;&lt;span style=&quot;white-space: pre;&quot;&gt;&#x9;&lt;/span&gt;&lt;span style=&quot;white-space: pre;&quot;&gt;&#x9;&lt;/span&gt;&lt;span style=&quot;white-space: pre;&quot;&gt;&#x9;&lt;/span&gt;&lt;span style=&quot;white-space: pre;&quot;&gt;&#x9;&lt;/span&gt;&lt;span style=&quot;white-space: pre;&quot;&gt;&#x9;&lt;/span&gt;&lt;span style=&quot;white-space: pre;&quot;&gt;&#x9;&lt;/span&gt;&lt;span style=&quot;white-space: pre;&quot;&gt;&#x9;&lt;/span&gt;&lt;span style=&quot;white-space: pre;&quot;&gt;&#x9;&lt;/span&gt;&lt;span style=&quot;white-space: pre;&quot;&gt;&#x9;&lt;/span&gt;&lt;/span&gt;&lt;span style=&quot;background-color: initial; white-space: pre;&quot;&gt;&#x9;&lt;/span&gt;&lt;span style=&quot;background-color: initial; white-space: pre;&quot;&gt;&#x9;&lt;/span&gt;&lt;span style=&quot;background-color: initial;&quot;&gt;us-central1&lt;/span&gt;&lt;/div&gt;" style="rounded=0;whiteSpace=wrap;html=1;verticalAlign=top;" vertex="1" parent="1">
          <mxGeometry x="949" y="538" width="1021" height="120" as="geometry" />
        </mxCell>
        <mxCell id="rjEZ4kOpZJ9vNakwqDbt-59" value="GKE Control Plane" style="rounded=0;whiteSpace=wrap;html=1;" vertex="1" parent="1">
          <mxGeometry x="1089" y="578" width="250" height="50" as="geometry" />
        </mxCell>
        <mxCell id="rjEZ4kOpZJ9vNakwqDbt-60" style="edgeStyle=orthogonalEdgeStyle;rounded=0;orthogonalLoop=1;jettySize=auto;html=1;exitX=0.5;exitY=0;exitDx=0;exitDy=0;entryX=0.474;entryY=0.995;entryDx=0;entryDy=0;entryPerimeter=0;" edge="1" parent="1" source="rjEZ4kOpZJ9vNakwqDbt-59" target="rjEZ4kOpZJ9vNakwqDbt-52">
          <mxGeometry relative="1" as="geometry" />
        </mxCell>
        <mxCell id="rjEZ4kOpZJ9vNakwqDbt-61" value="dataplane and &lt;br&gt;gcp service calls" style="edgeLabel;html=1;align=center;verticalAlign=middle;resizable=0;points=[];" vertex="1" connectable="0" parent="rjEZ4kOpZJ9vNakwqDbt-60">
          <mxGeometry x="-0.123" y="2" relative="1" as="geometry">
            <mxPoint as="offset" />
          </mxGeometry>
        </mxCell>
        <mxCell id="rjEZ4kOpZJ9vNakwqDbt-62" value="&amp;nbsp;GKE&amp;nbsp; Dataplane V2" style="rounded=0;whiteSpace=wrap;html=1;" vertex="1" parent="1">
          <mxGeometry x="1560" y="360" width="250" height="50" as="geometry" />
        </mxCell>
        <mxCell id="rjEZ4kOpZJ9vNakwqDbt-63" value="GKE Control Plane" style="rounded=0;whiteSpace=wrap;html=1;" vertex="1" parent="1">
          <mxGeometry x="1560" y="578" width="250" height="50" as="geometry" />
        </mxCell>
        <mxCell id="rjEZ4kOpZJ9vNakwqDbt-64" style="edgeStyle=orthogonalEdgeStyle;rounded=0;orthogonalLoop=1;jettySize=auto;html=1;exitX=0.5;exitY=0;exitDx=0;exitDy=0;entryX=0.474;entryY=0.995;entryDx=0;entryDy=0;entryPerimeter=0;" edge="1" parent="1">
          <mxGeometry relative="1" as="geometry">
            <mxPoint x="1690" y="578" as="sourcePoint" />
            <mxPoint x="1690" y="410" as="targetPoint" />
          </mxGeometry>
        </mxCell>
        <mxCell id="rjEZ4kOpZJ9vNakwqDbt-65" value="dataplane and &lt;br&gt;gcp service calls" style="edgeLabel;html=1;align=center;verticalAlign=middle;resizable=0;points=[];" vertex="1" connectable="0" parent="rjEZ4kOpZJ9vNakwqDbt-64">
          <mxGeometry x="-0.123" y="2" relative="1" as="geometry">
            <mxPoint as="offset" />
          </mxGeometry>
        </mxCell>
        <mxCell id="rjEZ4kOpZJ9vNakwqDbt-68" value="Ulta Beauty Private Datacenter (CyrusOne)" style="rounded=0;whiteSpace=wrap;html=1;verticalAlign=top;" vertex="1" parent="1">
          <mxGeometry x="639" y="-400" width="361" height="280" as="geometry" />
        </mxCell>
        <mxCell id="rjEZ4kOpZJ9vNakwqDbt-69" value="" style="rounded=0;whiteSpace=wrap;html=1;" vertex="1" parent="1">
          <mxGeometry x="670" y="-210" width="120" height="60" as="geometry" />
        </mxCell>
        <mxCell id="rjEZ4kOpZJ9vNakwqDbt-70" value="" style="rounded=0;whiteSpace=wrap;html=1;" vertex="1" parent="1">
          <mxGeometry x="850" y="-210" width="120" height="60" as="geometry" />
        </mxCell>
      </root>
    </mxGraphModel>
  </diagram>
</mxfile>
